<?xml version="1.0" encoding="UTF-8"?> <svg xmlns="http://www.w3.org/2000/svg" xmlns:xlink="http://www.w3.org/1999/xlink" version="1.1" id="Layer_1" x="0px" y="0px" width="300px" height="100px" viewBox="0 0 300 100" xml:space="preserve"> <g> <path id="path-9" fill="#0D47A1" d="M17.565,41.14c-2.332,1.555-4.353,3.886-5.44,6.373c-1.244,2.798-2.021,5.751-2.176,8.86 c0,0.311,0,0.621,0,0.777l0,0c0,2.176,0.311,4.508,1.088,6.528c0.933,2.798,2.643,5.285,4.664,7.461 c2.176,2.177,4.663,3.731,7.461,4.819c2.953,1.243,6.218,1.709,9.326,1.865c0.156,0,0.311,0,0.622,0h0.622 c0.777,0,1.555,0,2.332-0.156c2.798-0.311,5.44-0.932,8.083-2.021c1.555-0.776,3.109-1.554,4.508-2.642 c-2.021,0.932-4.042,1.554-6.373,2.02c-13.99,2.643-27.046-4.818-29.067-16.942c-0.777-3.42-0.311-6.995,0.933-10.259 c1.555-4.042,5.285-7.306,6.528-8.238c0.156-0.155,0.311-0.155,0.311-0.311C20.984,39.274,19.43,39.896,17.565,41.14z"></path> </g> <g> <path id="path-7" fill="#0D47A1" d="M4.197,44.093c-3.575,6.528-3.109,14.3,0.466,20.985c0.311,0.621,2.798,4.974,6.062,6.839l0,0 c-6.062-7.306-7.772-17.099-3.42-25.337c5.285-9.792,17.565-13.679,28.912-9.637l0,0c-3.265-3.73-10.726-4.042-11.969-4.042 C15.855,32.901,8.083,36.943,4.197,44.093z"></path> </g> <g> <path id="path-5" fill="#0D47A1" d="M16.943,26.684C8.083,29.482,1.865,36.321,0,43.938c2.643-5.751,7.772-10.726,14.611-13.212 c12.436-4.664,25.803,0.311,29.845,11.036c1.71,4.663,1.399,9.637-0.466,14.301c3.264-5.13,4.352-11.037,2.643-16.788 C43.834,30.726,35.285,25.44,25.647,25.44C22.694,25.285,19.896,25.751,16.943,26.684z"></path> </g> <g> <path id="path-3" fill="#0D47A1" d="M30.777,22.021c2.332,0.311,4.663,1.088,6.995,2.176c11.347,5.44,16.632,18.342,11.813,28.756 c-3.264,7.15-10.259,11.191-17.875,11.503c9.171,1.399,18.342-2.954,22.072-11.347c1.244-2.643,1.71-5.286,1.71-8.083v-0.155 c0-8.238-5.129-16.477-13.523-20.518c-3.419-1.555-6.839-2.332-10.415-2.332C31.399,22.021,31.088,22.021,30.777,22.021z"></path> </g> <g> <path id="path-1" fill="#0D47A1" d="M45.855,65.699c-11.347,5.285-24.249,1.244-28.912-8.705c-0.155-0.311-0.311-0.621-0.466-0.932 c0.311,1.709,0.777,3.264,1.399,4.974C22.539,71.14,35.44,75.025,46.788,69.74c11.036-5.129,16.477-16.942,12.435-26.735 C60.777,51.71,55.492,61.191,45.855,65.699z"></path> </g> <title>Group 4</title> <desc>Created with Sketch.</desc> <text transform="matrix(1 0 0 1 259.7324 34.4561)" fill="#5D6164" font-family="'NeuzeitGro-Reg'" font-size="20.2073"> </text> <text transform="matrix(1 0 0 1 300.0508 51.5547)" fill="#5D6164" font-family="'NeuzeitGro-Reg'" font-size="20.2073"> </text> <text transform="matrix(1 0 0 1 249.9004 68.6533)" fill="#5D6164" font-family="'NeuzeitGro-Reg'" font-size="20.2073"> </text> <g id="Clip-2"> </g> <g id="Clip-5"> </g> <g id="Clip-8"> </g> <g id="Clip-11"> </g> <g id="Clip-14"> </g> <path id="Fill-16" d="M103.057,38.498c-6.839,0-9.637,5.596-9.948,6.062c-1.865-4.353-5.596-6.062-9.327-6.062 c-6.839,0-9.637,6.062-9.637,6.062v-5.285h-3.109v30.933h3.575V47.979c0,0,2.643-5.907,8.549-5.907c4.663,0,7.461,2.642,7.461,9.015 v19.119h3.575V47.979c0,0,2.332-5.907,8.238-5.907c4.664,0,7.461,2.642,7.461,9.015v19.119h3.575V49.845 C113.316,41.295,107.875,38.498,103.057,38.498"></path> <path id="Fill-18" d="M144.404,60.414c0,0-3.42,7.15-11.192,7.15c-6.839,0-11.658-5.596-11.658-12.746 c0-7.15,4.819-12.746,11.658-12.746c7.772,0,11.192,7.15,11.192,7.15V60.414z M144.56,44.56c-0.777-1.244-4.353-6.062-11.192-6.062 c-8.549,0-15.388,6.684-15.388,16.321c0,9.638,6.839,16.321,15.388,16.321c7.928,0,11.503-6.528,11.503-6.528v5.596h3.264V22.643 h-3.575V44.56z"></path> <g id="Clip-21"> </g> <path id="Fill-20" d="M168.187,53.264c-5.285-1.088-9.327-2.176-9.327-6.062c0-3.264,3.109-5.285,7.307-5.285 c5.596,0,8.705,3.42,8.705,3.42l2.331-2.643c0,0-3.73-4.353-11.036-4.353c-6.84,0-10.881,4.353-10.881,8.705 c0,5.129,4.197,7.771,11.036,9.171c4.818,1.088,8.55,2.176,8.55,5.751c0,4.041-4.664,5.44-8.084,5.44 c-7.305,0-10.414-5.44-10.414-5.44l-2.798,2.332c0,0,4.042,6.528,13.212,6.528c5.907,0,11.658-2.954,11.658-8.86 C178.602,56.684,173.938,54.663,168.187,53.264"></path> <g> <path fill="#5D6164" d="M192.746,25.129v1.71c0.933-1.399,1.865-1.865,3.42-1.865c2.643,0,4.352,2.021,4.352,4.819 c0,2.953-1.865,4.974-4.352,4.974c-0.777,0-1.399-0.155-2.021-0.466c-0.621-0.311-0.777-0.466-1.398-1.243v5.751h-1.555V25.129 H192.746z M192.746,29.948c0,2.021,1.244,3.419,3.109,3.419s3.108-1.399,3.108-3.575c0-1.088-0.312-1.866-0.777-2.487 c-0.622-0.622-1.399-0.933-2.177-0.933C193.99,26.373,192.746,27.772,192.746,29.948z"></path> <path fill="#5D6164" d="M204.094,25.129v1.555c0.311-0.622,0.466-0.933,0.777-1.244c0.466-0.311,1.088-0.622,1.709-0.622h0.311 v1.554c-0.154,0-0.311,0-0.466,0c-0.777,0-1.554,0.311-2.021,1.088c-0.467,0.622-0.622,1.088-0.622,2.176V34.3h-1.554v-9.171 H204.094z"></path> <path fill="#5D6164" d="M216.994,29.793c0,2.798-2.176,4.818-4.818,4.818c-2.797,0-4.662-2.021-4.662-4.818 c0-2.954,1.865-4.819,4.818-4.819C215.129,24.974,216.994,26.995,216.994,29.793z M209.067,29.793c0,2.021,1.243,3.419,3.108,3.419 s3.109-1.399,3.109-3.419c0-2.021-1.244-3.42-3.109-3.42C210.467,26.373,209.067,27.772,209.067,29.793z"></path> <path fill="#5D6164" d="M220.57,25.129v1.71c0.932-1.399,1.865-1.865,3.42-1.865c2.643,0,4.352,2.021,4.352,4.819 c0,2.953-1.865,4.974-4.352,4.974c-0.777,0-1.399-0.155-2.021-0.466c-0.621-0.311-0.777-0.466-1.398-1.243v5.751h-1.555V25.129 H220.57z M220.57,29.948c0,2.021,1.243,3.419,3.108,3.419s3.108-1.399,3.108-3.575c0-1.088-0.311-1.866-0.777-2.487 c-0.621-0.622-1.398-0.933-2.176-0.933C221.813,26.373,220.57,27.772,220.57,29.948z"></path> <path fill="#5D6164" d="M231.295,30.259c0.156,0.777,0.156,1.243,0.622,1.709c0.622,0.777,1.555,1.244,2.487,1.244 c1.088,0,2.176-0.622,2.798-1.554l1.399,0.466c-0.777,1.554-2.332,2.487-4.197,2.487c-2.798,0-4.818-2.021-4.818-4.818 c0-2.798,2.021-4.974,4.662-4.974c2.643,0,4.664,2.021,4.664,4.818c0,0.156,0,0.311,0,0.622H231.295z M237.514,29.171 c0-0.777-0.156-1.088-0.467-1.554c-0.622-0.777-1.555-1.244-2.643-1.244s-2.021,0.466-2.487,1.244 c-0.311,0.466-0.466,0.777-0.466,1.554H237.514z"></path> <path fill="#5D6164" d="M242.486,25.129v1.555c0.312-0.622,0.467-0.933,0.777-1.244c0.467-0.311,1.089-0.622,1.711-0.622h0.311 v1.554c-0.156,0-0.311,0-0.467,0c-0.777,0-1.555,0.311-2.021,1.088c-0.155,0.622-0.312,1.244-0.312,2.332v4.663h-1.554v-9.327 H242.486z"></path> <path fill="#5D6164" d="M249.171,32.591c0,0.466,0.155,0.622,0.777,0.622h0.777v1.244h-1.399c-1.088,0-1.555-0.466-1.555-1.399 v-6.529h-1.243v-1.399h1.243v-2.953h1.555v2.953h1.399v1.399h-1.399v6.062H249.171z"></path> <path fill="#5D6164" d="M258.342,25.129h1.71l-5.596,13.834h-1.71l1.865-4.819l-3.264-9.016h1.709l2.487,6.839L258.342,25.129z"></path> </g> <g> <path fill="#5D6164" d="M192.746,42.228v1.244c0.777-1.088,1.555-1.555,2.643-1.555c1.244,0,2.021,0.622,2.486,1.71 c0.623-1.244,1.555-1.71,2.954-1.71c1.088,0,1.865,0.311,2.331,0.933c0.467,0.622,0.622,1.088,0.622,2.643v6.062h-1.554v-5.596 c0-1.088,0-1.399-0.312-1.71c-0.311-0.466-0.933-0.777-1.554-0.777c-1.399,0-2.177,0.933-2.177,2.642v5.441h-1.554v-5.596 c0-0.933-0.156-1.399-0.312-1.71c-0.312-0.466-0.777-0.777-1.555-0.777c-1.399,0-2.176,0.933-2.176,2.642v5.441h-1.555v-9.327 H192.746z"></path> <path fill="#5D6164" d="M213.575,42.228h1.554v9.327h-1.554v-1.866c-0.933,1.399-2.021,2.021-3.42,2.021 c-2.642,0-4.353-2.021-4.353-4.819s1.865-4.974,4.353-4.974c1.399,0,2.487,0.622,3.42,1.71V42.228z M208.135,44.56 c-0.467,0.622-0.777,1.554-0.777,2.487c0,2.021,1.244,3.419,2.953,3.419c1.71,0,3.265-1.71,3.265-3.575 c0-2.021-1.243-3.419-3.108-3.419C209.379,43.472,208.602,43.782,208.135,44.56z"></path> <path fill="#5D6164" d="M219.326,42.228v1.244c0.777-1.088,1.555-1.555,2.799-1.555c0.776,0,1.554,0.311,2.176,0.777 c0.621,0.622,0.777,1.244,0.777,2.487v6.217h-1.555v-5.906c0-0.777-0.156-1.244-0.311-1.554c-0.312-0.311-0.777-0.622-1.399-0.622 s-1.243,0.311-1.71,0.777s-0.621,0.933-0.621,1.71v5.751h-1.555v-9.327H219.326z"></path> <path fill="#5D6164" d="M234.871,42.228h1.554v9.327h-1.554v-1.866c-0.934,1.399-2.021,2.021-3.42,2.021 c-2.643,0-4.353-2.021-4.353-4.819s1.865-4.974,4.353-4.974c1.398,0,2.486,0.622,3.42,1.71V42.228z M229.43,44.56 c-0.466,0.622-0.777,1.554-0.777,2.487c0,2.021,1.244,3.419,2.954,3.419s3.265-1.71,3.265-3.575c0-2.021-1.244-3.419-3.109-3.419 C230.674,43.472,230.052,43.782,229.43,44.56z"></path> <path fill="#5D6164" d="M246.062,42.228h1.555v9.327c0,1.555-0.312,2.643-1.244,3.42c-0.777,0.777-2.021,1.243-3.42,1.243 c-1.709,0-3.108-0.622-4.197-1.71l1.089-1.088c0.466,0.467,0.622,0.621,0.933,0.777c0.467,0.311,1.398,0.621,2.176,0.621 c0.934,0,1.865-0.311,2.487-0.932c0.466-0.467,0.777-1.244,0.777-2.177v-2.021c-0.933,1.399-2.021,2.021-3.42,2.021 c-2.487,0-4.353-2.021-4.353-4.819c0-1.554,0.622-2.953,1.399-3.886c0.776-0.777,1.71-1.088,2.953-1.088 c1.399,0,2.331,0.466,3.265,1.865V42.228z M240,46.891c0,2.021,1.244,3.42,3.109,3.42c0.932,0,1.709-0.466,2.331-1.088 c0.466-0.466,0.622-1.399,0.622-2.332c0-1.244-0.156-1.865-0.777-2.487c-0.622-0.622-1.398-1.088-2.332-1.088 C241.244,43.472,240,44.871,240,46.891z"></path> <path fill="#5D6164" d="M251.191,47.357c0.156,0.777,0.156,1.244,0.622,1.71c0.622,0.777,1.554,1.244,2.487,1.244 c1.088,0,2.176-0.622,2.798-1.555l1.399,0.466c-0.777,1.555-2.332,2.487-4.197,2.487c-2.799,0-4.818-2.021-4.818-4.819 s2.02-4.974,4.662-4.974s4.664,2.021,4.664,4.819c0,0.155,0,0.311,0,0.622H251.191z M257.254,46.27 c0-0.777-0.155-1.088-0.467-1.555c-0.621-0.777-1.554-1.243-2.643-1.243c-1.088,0-2.02,0.466-2.486,1.243 c-0.311,0.466-0.467,0.777-0.467,1.555H257.254z"></path> <path fill="#5D6164" d="M262.383,42.228v1.244c0.777-1.088,1.555-1.555,2.643-1.555c1.244,0,2.021,0.622,2.488,1.71 c0.621-1.244,1.554-1.71,2.953-1.71c1.088,0,1.865,0.311,2.331,0.933c0.466,0.622,0.622,1.088,0.622,2.643v6.062h-1.555v-5.596 c0-1.088,0-1.399-0.311-1.71c-0.311-0.466-0.934-0.777-1.555-0.777c-1.398,0-2.176,0.933-2.176,2.642v5.441h-1.555v-5.596 c0-0.933-0.156-1.399-0.311-1.71c-0.312-0.466-0.777-0.777-1.555-0.777c-1.398,0-2.176,0.933-2.176,2.642v5.441h-1.555v-9.327 H262.383z"></path> <path fill="#5D6164" d="M276.994,47.357c0.156,0.777,0.156,1.244,0.623,1.71c0.621,0.777,1.554,1.244,2.486,1.244 c1.088,0,2.176-0.622,2.798-1.555l1.399,0.466c-0.777,1.555-2.332,2.487-4.197,2.487c-2.798,0-4.818-2.021-4.818-4.819 s2.021-4.974,4.663-4.974s4.663,2.021,4.663,4.819c0,0.155,0,0.311,0,0.622H276.994z M283.213,46.27 c0-0.777-0.156-1.088-0.467-1.555c-0.621-0.777-1.555-1.243-2.643-1.243s-2.021,0.466-2.486,1.243 c-0.312,0.466-0.467,0.777-0.467,1.555H283.213z"></path> <path fill="#5D6164" d="M288.342,42.228v1.244c0.777-1.088,1.555-1.555,2.798-1.555c0.777,0,1.555,0.311,2.177,0.777 c0.621,0.622,0.777,1.244,0.777,2.487v6.217h-1.555v-5.906c0-0.777-0.156-1.244-0.311-1.554c-0.312-0.311-0.777-0.622-1.399-0.622 s-1.243,0.311-1.71,0.777s-0.621,0.933-0.621,1.71v5.751h-1.555v-9.327H288.342z"></path> <path fill="#5D6164" d="M298.445,49.689c0,0.466,0.156,0.622,0.777,0.622H300v1.244h-1.555c-1.088,0-1.555-0.467-1.555-1.399 v-6.528h-1.243v-1.399h1.243v-2.954h1.555v2.954h1.399v1.399h-1.399V49.689z"></path> </g> <g> <path fill="#5D6164" d="M195.544,61.969L195.544,61.969c0-0.933-0.777-1.555-1.71-1.555c-1.088,0-1.709,0.467-1.709,1.399 c0,0.777,0.466,1.088,2.02,1.554c1.244,0.312,1.865,0.623,2.332,1.089s0.777,1.088,0.777,1.865c0,1.554-1.398,2.643-3.264,2.643 c-2.177,0-3.265-0.933-3.42-2.798h1.555c0.154,1.088,0.776,1.555,2.02,1.555c1.089,0,1.711-0.622,1.711-1.399 s-0.467-1.243-2.177-1.555c-2.021-0.622-2.953-1.399-2.953-2.798c0-1.555,1.243-2.643,3.265-2.643c2.02,0,3.108,1.088,3.264,2.799 h-1.71V61.969z"></path> <path fill="#5D6164" d="M207.979,63.99c0,2.797-2.177,4.818-4.819,4.818c-2.797,0-4.662-2.021-4.662-4.818 c0-2.954,1.865-4.819,4.818-4.819C205.959,59.171,207.979,61.191,207.979,63.99z M200.052,63.99c0,2.02,1.243,3.419,3.108,3.419 s3.109-1.399,3.109-3.419c0-2.021-1.244-3.42-3.109-3.42S200.052,61.969,200.052,63.99z"></path> <path fill="#5D6164" d="M211.71,68.652h-1.555v-7.927h-1.243v-1.399h1.243v-1.243c0-1.865,0.933-2.954,2.643-2.954 c0.155,0,0.312,0,0.466,0v1.399c-1.088,0.155-1.398,0.466-1.398,1.555v1.243h1.398v1.399h-1.398v7.927H211.71z"></path> <path fill="#5D6164" d="M216.84,66.787c0,0.467,0.154,0.622,0.777,0.622h0.776v1.243h-1.399c-1.088,0-1.554-0.466-1.554-1.398 v-6.528h-1.243v-1.399h1.243v-2.953h1.554v2.953h1.399v1.399h-1.399v6.062H216.84z"></path> <path fill="#5D6164" d="M232.85,59.326l-3.264,9.326h-1.399l-2.177-6.994l-2.176,6.994h-1.555l-3.264-9.326h1.555l2.331,6.84 l2.177-6.84h1.555l2.176,6.84l2.486-6.84H232.85z"></path> <path fill="#5D6164" d="M241.088,59.326h1.555v9.326h-1.555v-1.865c-0.933,1.399-2.021,2.021-3.42,2.021 c-2.643,0-4.352-2.021-4.352-4.818c0-2.799,1.865-4.975,4.352-4.975c1.399,0,2.487,0.621,3.42,1.71V59.326z M235.647,61.658 c-0.466,0.621-0.776,1.555-0.776,2.486c0,2.021,1.242,3.42,2.953,3.42c1.709,0,3.264-1.709,3.264-3.574 c0-2.021-1.243-3.42-3.108-3.42C236.891,60.57,236.27,60.881,235.647,61.658z"></path> <path fill="#5D6164" d="M246.994,59.326v1.555c0.312-0.621,0.467-0.933,0.777-1.244c0.467-0.311,1.088-0.621,1.711-0.621h0.311 v1.555c-0.156,0-0.311,0-0.467,0c-0.777,0-1.555,0.311-2.021,1.088c-0.466,0.621-0.622,1.088-0.622,2.176v4.664h-1.555v-9.327 L246.994,59.326L246.994,59.326z"></path> </g> <g> <path fill="#5D6164" d="M251.969,64.456c0.156,0.777,0.156,1.243,0.622,1.71c0.622,0.777,1.554,1.243,2.487,1.243 c1.088,0,2.176-0.622,2.797-1.554l1.399,0.466c-0.776,1.554-2.331,2.487-4.196,2.487c-2.799,0-4.818-2.021-4.818-4.818 c0-2.799,2.02-4.975,4.662-4.975s4.664,2.021,4.664,4.818c0,0.156,0,0.311,0,0.622H251.969z M258.187,63.367 c0-0.776-0.155-1.088-0.466-1.554c-0.622-0.777-1.555-1.243-2.643-1.243s-2.021,0.466-2.487,1.243 c-0.312,0.466-0.466,0.777-0.466,1.554H258.187z"></path> </g> </svg> 